<svg xmlns="http://www.w3.org/2000/svg" version="1.1" xmlns:xlink="http://www.w3.org/1999/xlink" xmlns:svgjs="http://svgjs.dev/svgjs" width="100%" height="100%" viewBox="0 0 1000 600"><rect width="1000" height="600" x="0" y="0" fill="#abdbe3"/><g><circle r="166.66666666666666" cx="378.9806772867838" cy="401.2029369570778" fill="#080a52" transform="matrix(0.5887505113475889,0,0,0.5887505113475888,0,63.7915727695804)"/><path d="M317.5603370092152 472.9182607136072L317.5603370092152 472.9182607136072L317.5603370092152 462.1822509148162Q317.5603370092152 458.89757936164506 320.84500856238634 458.89757936164506L320.84500856238634 458.89757936164506L332.21970449651616 458.89757936164506L332.21970449651616 345.02896551837773L320.84500856238634 345.02896551837773Q317.5603370092152 345.02896551837773 317.5603370092152 341.74429396520657L317.5603370092152 341.74429396520657L317.5603370092152 330.79538878796933Q317.5603370092152 327.51071723479816 320.84500856238634 327.51071723479816L320.84500856238634 327.51071723479816Q348.8863712663106 326.20293133862816 367.4995100676139 326.20293133862816L367.4995100676139 326.20293133862816Q424.43381698924753 326.20293133862816 424.43381698924753 366.92677587285226L424.43381698924753 366.92677587285226Q424.43381698924753 381.16035260326066 417.19537412207404 392.0180169040209Q409.95693125490055 402.8452675792889 397.9131355599396 408.5326155463538L397.9131355599396 408.5326155463538L423.5518218499701 458.89757936164506L437.11629881954735 458.89757936164506Q440.4009703727185 458.89757936164506 440.4009703727185 462.1822509148162L440.4009703727185 462.1822509148162L440.4009703727185 472.9182607136072Q440.4009703727185 476.20293226677836 437.11629881954735 476.20293226677836L437.11629881954735 476.20293226677836L408.22335460183797 476.20293226677836Q404.9386830486668 476.20293226677836 403.3875881485582 473.3440514704997L403.3875881485582 473.3440514704997L373.61264879157136 414.46327251735727L369.23308672067645 414.46327251735727Q362.2379528574416 414.46327251735727 356.76350026882295 413.7941727565261L356.76350026882295 413.7941727565261L356.76350026882295 458.89757936164506L370.54087261684646 458.89757936164506Q373.8255441700176 458.89757936164506 373.8255441700176 462.1822509148162L373.8255441700176 462.1822509148162L373.8255441700176 472.9182607136072Q373.8255441700176 476.20293226677836 370.54087261684646 476.20293226677836L370.54087261684646 476.20293226677836L320.84500856238634 476.20293226677836Q317.5603370092152 476.20293226677836 317.5603370092152 472.9182607136072ZM364.6406292713353 344.3902793830389L356.76350026882295 344.3902793830389L356.76350026882295 397.15791961222396Q358.49707692188554 397.3708149906702 361.7817484750567 397.3708149906702L361.7817484750567 397.3708149906702Q379.5433057625749 397.3708149906702 389.3973204220884 390.3756811274353Q399.2513350816019 383.3501336387081 399.2513350816019 369.32945228674595L399.2513350816019 369.32945228674595Q399.2513350816019 344.3902793830389 364.6406292713353 344.3902793830389L364.6406292713353 344.3902793830389Z " fill="#abdbe3" transform="matrix(0.5887505113475889,0,0,0.5887505113475888,0,63.7915727695804)"/><path d="M667.1864858457363 340.45611978000215L658.4888534248383 340.45611978000215L658.4888534248383 391.9360854963644Q658.4888534248383 400.13280714956676 659.3085255901586 405.46067622414824Q660.1281977554788 410.7885452987298 662.5872142514395 415.8659589894634L662.5872142514395 415.8659589894634Q667.3458665445486 425.70202497330615 682.9879436994097 425.70202497330615Q698.6527895255297 425.70202497330615 704.7092560803959 417.18654192247936Q710.7884913065209 408.67105887165246 710.7884913065209 392.4369962640601L710.7884913065209 392.4369962640601L710.7884913065209 340.45611978000215L702.0908588856229 340.45611978000215Q699.6318423896622 340.45611978000215 699.6318423896622 337.99710328404143L699.6318423896622 337.99710328404143L699.6318423896622 329.6410009320268Q699.6318423896622 327.18198443606616 702.0908588856229 327.18198443606616L702.0908588856229 327.18198443606616L735.2192755673155 327.18198443606616Q737.6782920632762 327.18198443606616 737.6782920632762 329.6410009320268L737.6782920632762 329.6410009320268L737.6782920632762 337.99710328404143Q737.6782920632762 340.45611978000215 735.2192755673155 340.45611978000215L735.2192755673155 340.45611978000215L726.5216431464175 340.45611978000215L726.5216431464175 395.8750656241533Q726.5216431464175 413.9078532611984 718.0061600955906 426.36231643981415L718.0061600955906 426.36231643981415Q713.4068885012938 432.919693762376 704.6409500666192 436.69929319135264Q695.8750116319444 440.45612394907033 683.3977797820698 440.45612394907033L683.3977797820698 440.45612394907033Q659.1491448913463 440.45612394907033 649.6318403051281 429.8914604849429Q640.1373043901687 419.3267970208155 640.1373043901687 397.67379065360603L640.1373043901687 397.67379065360603L640.1373043901687 340.45611978000215L631.4396719692708 340.45611978000215Q628.9806554733101 340.45611978000215 628.9806554733101 337.99710328404143L628.9806554733101 337.99710328404143L628.9806554733101 329.6410009320268Q628.9806554733101 327.18198443606616 631.4396719692708 327.18198443606616L631.4396719692708 327.18198443606616L667.1864858457363 327.18198443606616Q669.6455023416971 327.18198443606616 669.6455023416971 329.6410009320268L669.6455023416971 329.6410009320268L669.6455023416971 337.99710328404143Q669.6455023416971 340.45611978000215 667.1864858457363 340.45611978000215L667.1864858457363 340.45611978000215ZM813.2475119715498 438.49801822080536L813.2475119715498 438.49801822080536L767.6646321112414 438.49801822080536Q765.2056156152807 438.49801822080536 765.2056156152807 436.03900172484464L765.2056156152807 436.03900172484464L765.2056156152807 428.0016607704546Q765.2056156152807 425.5426442744939 767.6646321112414 425.5426442744939L767.6646321112414 425.5426442744939L781.1209168252485 425.5426442744939L781.1209168252485 340.29673908118986L758.9897683616023 340.29673908118986L759.8094405269226 353.09273232868907Q759.9688212257348 355.55174882464974 757.509804729774 355.55174882464974L757.509804729774 355.55174882464974L747.514358047119 355.55174882464974Q745.0553415511583 355.55174882464974 745.0553415511583 353.09273232868907L745.0553415511583 353.09273232868907L745.0553415511583 329.6410009320268Q745.0553415511583 327.18198443606616 747.514358047119 327.18198443606616L747.514358047119 327.18198443606616L833.23840533686 327.18198443606616Q835.6974218328206 327.18198443606616 835.6974218328206 329.6410009320268L835.6974218328206 329.6410009320268L835.6974218328206 353.09273232868907Q835.6974218328206 355.55174882464974 833.23840533686 355.55174882464974L833.23840533686 355.55174882464974L823.2429586542048 355.55174882464974Q820.7839421582441 355.55174882464974 820.9433228570564 353.09273232868907L820.9433228570564 353.09273232868907L821.7629950223767 340.29673908118986L799.6318465587304 340.29673908118986L799.6318465587304 425.5426442744939L813.2475119715498 425.5426442744939Q815.7065284675106 425.5426442744939 815.7065284675106 428.0016607704546L815.7065284675106 428.0016607704546L815.7065284675106 436.03900172484464Q815.7065284675106 438.49801822080536 813.2475119715498 438.49801822080536ZM883.7393181890898 340.45611978000215L875.0416857681917 340.45611978000215L875.0416857681917 425.5426442744939L883.7393181890898 425.5426442744939Q886.1983346850504 425.5426442744939 886.1983346850504 428.0016607704546L886.1983346850504 428.0016607704546L886.1983346850504 436.03900172484464Q886.1983346850504 438.49801822080536 883.7393181890898 438.49801822080536L883.7393181890898 438.49801822080536L847.9925043126241 438.49801822080536Q845.5334878166634 438.49801822080536 845.5334878166634 436.03900172484464L845.5334878166634 436.03900172484464L845.5334878166634 428.0016607704546Q845.5334878166634 425.5426442744939 847.9925043126241 425.5426442744939L847.9925043126241 425.5426442744939L856.6901367335221 425.5426442744939L856.6901367335221 340.45611978000215L847.9925043126241 340.45611978000215Q845.5334878166634 340.45611978000215 845.5334878166634 337.99710328404143L845.5334878166634 337.99710328404143L845.5334878166634 329.6410009320268Q845.5334878166634 327.18198443606616 847.9925043126241 327.18198443606616L847.9925043126241 327.18198443606616L883.7393181890898 327.18198443606616Q886.1983346850504 327.18198443606616 886.1983346850504 329.6410009320268L886.1983346850504 329.6410009320268L886.1983346850504 337.99710328404143Q886.1983346850504 340.45611978000215 883.7393181890898 340.45611978000215L883.7393181890898 340.45611978000215ZM964.2265710892847 438.49801822080536L964.2265710892847 438.49801822080536L918.6436912289763 438.49801822080536Q916.1846747330155 438.49801822080536 916.1846747330155 436.03900172484464L916.1846747330155 436.03900172484464L916.1846747330155 428.0016607704546Q916.1846747330155 425.5426442744939 918.6436912289763 425.5426442744939L918.6436912289763 425.5426442744939L932.0999759429834 425.5426442744939L932.0999759429834 340.29673908118986L909.968827479337 340.29673908118986L910.7884996446573 353.09273232868907Q910.9478803434697 355.55174882464974 908.4888638475089 355.55174882464974L908.4888638475089 355.55174882464974L898.4934171648539 355.55174882464974Q896.0344006688932 355.55174882464974 896.0344006688932 353.09273232868907L896.0344006688932 353.09273232868907L896.0344006688932 329.6410009320268Q896.0344006688932 327.18198443606616 898.4934171648539 327.18198443606616L898.4934171648539 327.18198443606616L984.2174644545948 327.18198443606616Q986.6764809505555 327.18198443606616 986.6764809505555 329.6410009320268L986.6764809505555 329.6410009320268L986.6764809505555 353.09273232868907Q986.6764809505555 355.55174882464974 984.2174644545948 355.55174882464974L984.2174644545948 355.55174882464974L974.2220177719397 355.55174882464974Q971.7630012759789 355.55174882464974 971.9223819747913 353.09273232868907L971.9223819747913 353.09273232868907L972.7420541401116 340.29673908118986L950.6109056764653 340.29673908118986L950.6109056764653 425.5426442744939L964.2265710892847 425.5426442744939Q966.6855875852455 425.5426442744939 966.6855875852455 428.0016607704546L966.6855875852455 428.0016607704546L966.6855875852455 436.03900172484464Q966.6855875852455 438.49801822080536 964.2265710892847 438.49801822080536ZM996.5125469343982 436.03900172484464L996.5125469343982 436.03900172484464L996.5125469343982 428.0016607704546Q996.5125469343982 425.5426442744939 998.9715634303589 425.5426442744939L998.9715634303589 425.5426442744939L1007.5098151524447 425.5426442744939L1007.5098151524447 340.29673908118986L998.9715634303589 340.29673908118986Q996.5125469343982 340.29673908118986 996.5125469343982 337.83772258522913L996.5125469343982 337.83772258522913L996.5125469343982 329.6410009320268Q996.5125469343982 327.18198443606616 998.9715634303589 327.18198443606616L998.9715634303589 327.18198443606616Q1019.9642783310604 326.2029315719336 1033.8987051415043 326.2029315719336L1033.8987051415043 326.2029315719336Q1076.5216577381566 326.2029315719336 1076.5216577381566 356.6901823875945L1076.5216577381566 356.6901823875945Q1076.5216577381566 367.3459205367575 1071.1027139785392 375.4743361761831Q1065.706538890181 383.57998314434985 1056.6901450716587 387.83772466976325L1056.6901450716587 387.83772466976325L1075.8613662716484 425.5426442744939L1086.0389623243746 425.5426442744939Q1088.4979788203354 425.5426442744939 1088.4979788203354 428.0016607704546L1088.4979788203354 428.0016607704546L1088.4979788203354 436.03900172484464Q1088.4979788203354 438.49801822080536 1086.0389623243746 438.49801822080536L1086.0389623243746 438.49801822080536L1064.3859559571652 438.49801822080536Q1061.9269394612047 438.49801822080536 1060.7885058982597 436.3577631224692L1060.7885058982597 436.3577631224692L1038.4979767358013 392.27761556524786L1035.2192880745206 392.27761556524786Q1029.9597250137153 392.27761556524786 1025.8613641871143 391.77670479755216L1025.8613641871143 391.77670479755216L1025.8613641871143 425.5426442744939L1036.198340938653 425.5426442744939Q1038.6573574346135 425.5426442744939 1038.6573574346135 428.0016607704546L1038.6573574346135 428.0016607704546L1038.6573574346135 436.03900172484464Q1038.6573574346135 438.49801822080536 1036.198340938653 438.49801822080536L1036.198340938653 438.49801822080536L998.9715634303589 438.49801822080536Q996.5125469343982 438.49801822080536 996.5125469343982 436.03900172484464ZM1031.758450043168 339.81859698475307L1025.8613641871143 339.81859698475307L1025.8613641871143 379.32224161893646Q1027.1819471201302 379.4816223177487 1029.640963616091 379.4816223177487L1029.640963616091 379.4816223177487Q1042.915098960027 379.4816223177487 1050.2921484479089 374.24482792820277Q1057.669197935791 368.985264867398 1057.669197935791 358.48890741704724L1057.669197935791 358.48890741704724Q1057.669197935791 339.81859698475307 1031.758450043168 339.81859698475307L1031.758450043168 339.81859698475307ZM1134.3996200782685 440.45612394907033L1134.3996200782685 440.45612394907033Q1114.8868688093953 440.45612394907033 1105.779400305837 429.07178831962267Q1096.6947004735375 417.68745269017506 1096.6947004735375 398.90329890158637Q1096.6947004735375 380.14191378425664 1106.3486170873093 367.8468313044532Q1116.0253023723399 355.55174882464974 1134.2174707081972 355.55174882464974L1134.2174707081972 355.55174882464974Q1143.2338645267196 355.55174882464974 1149.7229358355048 358.89874349970734Q1156.1892384730313 362.26850684602385 1159.6273078331246 368.00621200326543L1159.6273078331246 368.00621200326543Q1166.184685155686 379.16286092012416 1166.184685155686 393.7348105258172L1166.184685155686 393.7348105258172Q1166.184685155686 400.63371791726246 1165.5471623604371 401.2940093837704Q1164.886870893929 401.9315321790195 1163.0881458644762 401.9315321790195L1163.0881458644762 401.9315321790195L1114.8868688093953 401.9315321790195Q1115.7065409747152 413.74847256238616 1120.6928799804132 420.2147751999124Q1125.7019876573704 426.70384650869755 1137.997070137174 426.70384650869755L1137.997070137174 426.70384650869755Q1147.0134639556964 426.70384650869755 1156.5307685419148 422.42333631202524L1156.5307685419148 422.42333631202524Q1158.8076356678043 421.2849027490805 1159.8094572031955 423.7439192450412L1159.8094572031955 423.7439192450412L1162.9059964944054 431.28034943173554Q1163.7256686597257 433.26122383125943 1161.448801533836 434.5590380930165L1161.448801533836 434.5590380930165Q1150.6109140146018 440.45612394907033 1134.3996200782685 440.45612394907033ZM1114.8868688093953 389.8185990692872L1114.8868688093953 389.8185990692872L1148.9715696839612 389.8185990692872Q1149.3130997528447 369.3267949362814 1132.91965644644 369.3267949362814L1132.91965644644 369.3267949362814Q1123.2429711614095 369.3267949362814 1119.235685019844 375.4743361761831Q1115.2056302070196 381.6218774160849 1114.8868688093953 389.8185990692872ZM1177.0225726749204 463.2475638792246L1185.6974364245593 463.2475638792246L1185.6974364245593 370.7839898968507L1176.840423304849 370.7839898968507Q1174.3814068088886 370.7839898968507 1174.3814068088886 368.32497340089L1174.3814068088886 368.32497340089L1174.3814068088886 359.80949035006313Q1174.3814068088886 357.35047385410246 1176.840423304849 357.35047385410246L1176.840423304849 357.35047385410246L1199.1537211385667 357.35047385410246Q1201.1118268668315 357.35047385410246 1201.6127376345275 359.80949035006313L1201.6127376345275 359.80949035006313L1203.2520819651677 369.6455563339059Q1211.6081843171823 355.55174882464974 1228.9806804877194 355.55174882464974L1228.9806804877194 355.55174882464974Q1244.053540861108 355.55174882464974 1252.591792583194 365.4561208222692Q1261.1072756340209 375.38326149114755 1261.1072756340209 394.7366320612085L1261.1072756340209 394.7366320612085Q1261.1072756340209 418.16559478661185 1251.1118289513656 429.3222437034705Q1241.1163822687108 440.45612394907033 1225.383230428814 440.45612394907033L1225.383230428814 440.45612394907033Q1212.4278564825026 440.45612394907033 1204.071754130488 433.57998522888397L1204.071754130488 433.57998522888397L1204.071754130488 463.08818318041233L1221.444250301025 463.08818318041233Q1223.903266796986 463.08818318041233 1223.903266796986 465.547199676373L1223.903266796986 465.547199676373L1223.903266796986 473.7439213295753Q1223.903266796986 476.20293782553597 1221.444250301025 476.20293782553597L1221.444250301025 476.20293782553597L1177.0225726749204 476.20293782553597Q1174.5635561789595 476.20293782553597 1174.5635561789595 473.7439213295753L1174.5635561789595 473.7439213295753L1174.5635561789595 465.70658037518524Q1174.5635561789595 463.2475638792246 1177.0225726749204 463.2475638792246L1177.0225726749204 463.2475638792246ZM1204.071754130488 388.6573968350835L1204.071754130488 388.6573968350835L1204.071754130488 419.9643198160646Q1206.690151325261 422.6054856820964 1212.0863264136192 424.72297210917367Q1217.505270173236 426.86322720750985 1222.7420645627822 426.86322720750985L1222.7420645627822 426.86322720750985Q1232.2593691490006 426.86322720750985 1237.4278575247695 420.37415589872467Q1242.5963459005388 413.9078532611984 1242.5963459005388 398.4934628189263L1242.5963459005388 398.4934628189263Q1242.5963459005388 377.5235165894837 1233.3978027119451 372.7648642963746L1233.3978027119451 372.7648642963746Q1229.4815912554154 370.6246091980384 1222.58268386397 370.6246091980384Q1215.7065451437834 370.6246091980384 1209.8777653015063 375.4743361761831Q1204.071754130488 380.30129448306894 1204.071754130488 388.6573968350835ZM1272.5826859485041 399.1537542854343L1272.5826859485041 399.1537542854343Q1272.5826859485041 386.85867180563076 1276.3622853774805 377.8422779871082Q1280.1191161351985 368.8258841685857 1286.1983513613236 364.2266125742888L1286.1983513613236 364.2266125742888Q1297.833142374619 355.55174882464974 1311.4488077874385 355.55174882464974L1311.4488077874385 355.55174882464974Q1321.4442544700933 355.55174882464974 1328.32039319028 358.67105678711835Q1335.2193005817248 361.76759607832815 1339.0672060244783 365.8659569049293Q1342.9151114672318 369.96431773153046 1345.6245833470402 377.682897288296Q1348.3340552268487 385.3787081738026 1348.3340552268487 395.71568492534107L1348.3340552268487 395.71568492534107Q1348.3340552268487 417.68745269017506 1337.2684809950256 429.07178831962267Q1326.2029067632025 440.45612394907033 1308.9897912914776 440.45612394907033Q1291.7766758197527 440.45612394907033 1282.1682965484988 430.0508411837552Q1272.5826859485041 419.64555841844003 1272.5826859485041 399.1537542854343ZM1310.2876055532347 427.0226079063221L1310.2876055532347 427.0226079063221Q1320.1236715370774 427.0226079063221 1324.6318684463386 419.7366331034756Q1329.1400653556002 412.4278896293702 1329.1400653556002 398.0153207224895Q1329.1400653556002 383.57998314434985 1324.6318684463386 376.29400834150334Q1320.1236715370774 368.985264867398 1309.96884415561 368.985264867398L1309.96884415561 368.985264867398Q1291.116384353245 368.985264867398 1291.116384353245 395.55630422652877L1291.116384353245 395.55630422652877Q1291.116384353245 427.0226079063221 1310.2876055532347 427.0226079063221ZM1386.8586469968996 371.44428136335864Q1389.6364248904847 364.8869040407968 1395.8750408154224 360.2193264327233Q1402.0908880691004 355.55174882464974 1409.4679375569826 355.55174882464974Q1416.8449870448649 355.55174882464974 1420.7839671726538 356.84956308640676L1420.7839671726538 356.84956308640676Q1422.7420729009186 357.5098545529147 1422.7420729009186 359.80949035006313L1422.7420729009186 359.80949035006313L1422.7420729009186 381.94063881370937Q1422.7420729009186 384.3996553096701 1420.2830564049577 384.3996553096701L1420.2830564049577 384.3996553096701L1409.6273182557952 384.3996553096701Q1407.1683017598343 384.3996553096701 1407.3504511299057 381.94063881370937L1407.3504511299057 381.94063881370937L1407.9879739251546 372.4233342274911Q1407.1683017598343 372.2639535286789 1405.2101960315695 372.2639535286789L1405.2101960315695 372.2639535286789Q1397.673765844875 372.2639535286789 1392.7557328529533 378.4114947685806Q1387.837699861032 384.55903600848234 1387.837699861032 394.8960127600208L1387.837699861032 394.8960127600208L1387.837699861032 425.5426442744939L1405.8704874980772 425.5426442744939Q1408.329503994038 425.5426442744939 1408.329503994038 428.0016607704546L1408.329503994038 428.0016607704546L1408.329503994038 436.03900172484464Q1408.329503994038 438.49801822080536 1405.8704874980772 438.49801822080536L1405.8704874980772 438.49801822080536L1360.7885184054644 438.49801822080536Q1358.329501909504 438.49801822080536 1358.329501909504 436.03900172484464L1358.329501909504 436.03900172484464L1358.329501909504 428.0016607704546Q1358.329501909504 425.5426442744939 1360.7885184054644 425.5426442744939L1360.7885184054644 425.5426442744939L1369.4633821551038 425.5426442744939L1369.4633821551038 370.7839898968507L1360.6291377066523 370.7839898968507Q1358.1701212106914 370.7839898968507 1358.1701212106914 368.32497340089L1358.1701212106914 368.32497340089L1358.1701212106914 359.80949035006313Q1358.1701212106914 357.35047385410246 1360.6291377066523 357.35047385410246L1360.6291377066523 357.35047385410246L1382.259375402603 357.35047385410246Q1384.5590111997512 357.35047385410246 1385.037153296188 359.80949035006313L1385.037153296188 359.80949035006313L1386.8586469968996 371.44428136335864ZM1477.1819658809372 370.7839898968507L1460.6291418757205 370.7839898968507L1460.6291418757205 412.1091282317457Q1460.6291418757205 419.8049391172523 1462.5872476039854 423.2430084773455Q1464.5453533322502 426.70384650869755 1469.9642970918676 426.70384650869755Q1475.3832408514845 426.70384650869755 1480.4606545422184 424.4042107115491L1480.4606545422184 424.4042107115491Q1482.2593795716712 423.7439192450412 1483.0790517369915 425.70202497330615L1483.0790517369915 425.70202497330615L1486.0389790006475 433.26122383125943Q1486.19835969946 433.7393659276962 1486.19835969946 434.65011277805206Q1486.19835969946 435.53809095714894 1484.5590153688195 436.53991249254034L1484.5590153688195 436.53991249254034Q1476.6810551132417 440.45612394907033 1465.8659362652666 440.45612394907033L1465.8659362652666 440.45612394907033Q1451.2712179883142 440.45612394907033 1446.6947150652763 432.919693762376L1446.6947150652763 432.919693762376Q1443.4160264039956 428.0016607704546 1442.9151156363 423.42515784741664L1442.9151156363 423.42515784741664Q1442.2548241697918 417.18654192247936 1442.2548241697918 410.31040320229295L1442.2548241697918 410.31040320229295L1442.2548241697918 370.7839898968507L1432.9196689536448 370.7839898968507Q1430.4606524576843 370.7839898968507 1430.4606524576843 368.32497340089L1430.4606524576843 368.32497340089L1430.4606524576843 359.80949035006313Q1430.4606524576843 357.35047385410246 1432.9196689536448 357.35047385410246L1432.9196689536448 357.35047385410246L1442.2548241697918 357.35047385410246L1442.2548241697918 335.2193253904562Q1442.2548241697918 332.76030889449555 1444.7138406657527 332.76030889449555L1444.7138406657527 332.76030889449555L1458.1701253797596 332.76030889449555Q1460.6291418757205 332.76030889449555 1460.6291418757205 335.2193253904562L1460.6291418757205 335.2193253904562L1460.6291418757205 357.35047385410246L1477.1819658809372 357.35047385410246Q1479.6409823768981 357.35047385410246 1479.6409823768981 359.80949035006313L1479.6409823768981 359.80949035006313L1479.6409823768981 368.32497340089Q1479.6409823768981 370.7839898968507 1477.1819658809372 370.7839898968507L1477.1819658809372 370.7839898968507Z " fill="#080a52" transform="matrix(0.5887505113475889,0,0,0.5887505113475888,0,63.7915727695804)"/></g></svg>